<svg width="204" height="96" viewBox="0 0 204 96" fill="none" xmlns="http://www.w3.org/2000/svg">
<path d="M29.8873 49.8032C27.7997 49.8032 25.706 49.8968 23.6244 49.7752C21.7496 49.6657 21.0371 48.6694 21.0152 46.627C20.8827 33.7851 19.713 21.0478 16.547 8.55256C15.9707 6.27661 15.3153 4.02133 14.7098 1.75268C14.677 1.63103 14.7779 1.46681 14.7329 1.63103L26.6312 0.21875C25.6732 8.49052 24.6944 16.9265 23.7229 25.3613C23.1855 30.0324 22.6558 34.7015 22.1338 39.3686C22.0061 40.4998 21.8432 41.6324 21.814 42.7661C21.7229 46.2791 23.7436 48.5028 27.2234 48.7984C28.1 48.8738 28.9754 48.9553 29.8508 49.0344L29.8873 49.8032Z" fill="#3CA32B"/>
<path d="M18.5405 45.624C13.4923 33.8148 7.58327 22.8766 0 12.9249L7.12246 10.2074C10.9305 15.4077 19.1205 40.3957 18.5405 45.624Z" fill="#3CA32B"/>
<path d="M7.99609 7.02983L14.4741 5.78906C17.5977 16.782 19.0008 28.0158 19.5807 38.9978L7.99609 7.02983Z" fill="#3CA32B"/>
<path d="M30.4555 53.0938C26.6328 55.9852 22.7956 56.355 22.1719 54.1216L30.4555 53.0938Z" fill="#3CA32B"/>
<path d="M28.1088 51.5542C25.9677 52.4057 23.8059 53.1137 21.8496 51.1698L28.1088 51.5542Z" fill="#3CA32B"/>
<path d="M54.0316 2.27872C52.3951 2.01232 50.7488 1.80675 49.0953 1.64618C43.2215 1.07323 37.3502 0.462583 31.4654 0.0149341C29.1857 -0.159016 27.7668 1.19853 27.5018 3.46597C25.986 16.4794 24.4889 29.4953 23.0104 42.5136C22.7235 45.0377 24.1861 47.0144 26.7418 47.3307C33.7245 48.1968 40.7241 48.9486 46.8715 49.6492C51.5489 49.8366 52.5921 48.9887 53.1647 45.2408C53.245 44.7166 53.2863 44.185 53.341 43.6595C54.655 31.371 55.9725 19.0818 57.2938 6.79171C57.5698 4.21286 56.563 2.69231 54.0316 2.27872ZM49.2898 45.6459C42.1163 44.8601 35.2796 44.0938 28.4355 43.3736C27.0434 43.2264 26.9206 42.4138 27.0531 41.3057C27.8231 34.8342 28.5839 28.362 29.3353 21.8889C29.9225 16.8504 30.4891 11.8095 31.0873 6.77224C31.1821 5.96574 31.3937 5.17263 31.5809 4.22746L53.6389 6.78806C52.175 19.8514 50.7391 32.6787 49.2874 45.6459H49.2898Z" fill="#3CA32B"/>
<path d="M34.5788 24.4796L34.7004 23.3386C34.8155 22.2073 35.1717 21.37 35.7691 20.8266C36.3665 20.2833 37.1633 20.0627 38.1595 20.1649C39.1516 20.2671 39.875 20.6466 40.3298 21.3035C40.7845 21.9603 40.9531 22.8573 40.8356 23.9942L40.213 30.0764L38.2507 29.8757L38.8805 23.7218C38.9445 23.0916 38.8999 22.6213 38.7467 22.3107C38.6722 22.1586 38.5579 22.0296 38.416 21.9373C38.274 21.845 38.1098 21.7928 37.9406 21.7864C37.7777 21.7609 37.6109 21.7806 37.4585 21.8434C37.306 21.9063 37.1738 22.0099 37.0762 22.1428C36.867 22.4177 36.73 22.8727 36.6652 23.5077L36.0366 29.6494L34.0742 29.4475L34.4317 25.9563L33.6231 25.8736C33.5138 26.1797 33.298 26.4362 33.0152 26.5962C32.7067 26.7641 32.3527 26.8288 32.0048 26.7811L31.6875 26.7482L32.4012 24.2558L34.5788 24.4796Z" fill="#3CA32B"/>
<path d="M45.5234 30.6263C44.6691 30.5387 44.0129 30.3623 43.5549 30.0971C43.1111 29.8473 42.7752 29.4422 42.6114 28.9598C42.4396 28.4667 42.3962 27.8058 42.4813 26.977L42.5604 26.2058C42.6966 24.8798 42.9397 23.8398 43.2899 23.0856C43.6401 22.3314 44.1264 21.8071 44.7489 21.5127C45.3674 21.2184 46.212 21.1263 47.2827 21.2366L49.0579 21.4191L49.2573 24.0113L48.94 23.9785C48.5918 23.9532 48.2608 23.8172 47.9952 23.5904C47.7485 23.3782 47.5866 23.0841 47.5393 22.762C46.8317 22.689 46.2861 22.7466 45.9028 22.9348C45.5194 23.1229 45.2219 23.4708 45.0103 23.9785C44.7988 24.4869 44.6366 25.2918 44.524 26.3931L44.4377 27.2945C44.3728 27.9165 44.4376 28.367 44.6322 28.6459C44.8267 28.9249 45.185 29.0916 45.707 29.1459L46.9824 29.2761C47.1045 29.0306 47.3115 28.8379 47.5648 28.7335C47.8468 28.5954 48.162 28.5393 48.4743 28.5717L48.7916 28.6046L48.2724 30.1543L48.4658 31.7843L48.1484 31.7527C47.8335 31.7223 47.5337 31.6029 47.284 31.4085C47.06 31.2537 46.8991 31.0236 46.8304 30.7601L45.5234 30.6263Z" fill="#3CA32B"/>
<path d="M67.8509 17.7617H73.783L85.6023 48.5084H79.5231L77.1193 42.1744H64.5791L62.0793 48.5084H56L67.8509 17.7617ZM70.8541 25.9118L66.7299 36.4681H74.949L70.8541 25.9118Z" fill="#3CA32B"/>
<path d="M88.0469 25.757H92.9358V28.6205C93.4643 27.4917 94.1675 26.6349 95.0453 26.0502C95.8957 25.4732 96.9006 25.1671 97.9281 25.1719C98.7348 25.1896 99.527 25.3897 100.246 25.757L98.4692 30.669C97.8004 30.3349 97.2505 30.1678 96.8192 30.1678C95.9414 30.1678 95.1997 30.7112 94.5942 31.7979C93.9887 32.8845 93.6856 35.0166 93.6848 38.1939L93.7067 39.3009V48.4983H88.0469V25.757Z" fill="#3CA32B"/>
<path d="M105.293 16.3948C105.774 16.3888 106.25 16.4822 106.693 16.6694C107.136 16.8565 107.535 17.1333 107.866 17.4823C108.214 17.8257 108.488 18.2362 108.673 18.6889C108.857 19.1416 108.948 19.6271 108.939 20.1159C108.948 20.599 108.857 21.0786 108.675 21.5259C108.492 21.9731 108.221 22.3786 107.877 22.7178C107.55 23.0627 107.156 23.3363 106.719 23.5215C106.281 23.7068 105.81 23.7997 105.336 23.7944C104.851 23.8017 104.37 23.7082 103.923 23.5197C103.477 23.3313 103.074 23.052 102.741 22.6996C102.392 22.3503 102.118 21.9343 101.933 21.4763C101.749 21.0184 101.659 20.528 101.669 20.0344C101.668 19.0715 102.05 18.1479 102.729 17.466C103.409 16.7842 104.331 16.3998 105.293 16.3972V16.3948ZM102.442 25.7614H108.149V48.5087H102.446L102.442 25.7614Z" fill="#3CA32B"/>
<path d="M110.609 25.7586H112.636C112.649 22.7775 112.698 21.0149 112.782 20.4707C112.935 19.217 113.462 18.224 114.363 17.4917C115.263 16.7594 116.534 16.3944 118.176 16.3969C119.36 16.3969 120.697 16.6689 122.188 17.2131V21.5594C121.366 21.3234 120.69 21.205 120.161 21.2042C119.494 21.2042 119.005 21.3441 118.702 21.6227C118.478 21.8319 118.367 22.2637 118.368 22.9182L118.347 25.761H121.961V30.589H118.347V48.4999H112.644V30.5866H110.617L110.609 25.7586Z" fill="#3CA32B"/>
<path d="M130.959 25.7572V28.2655C131.915 27.2858 133.049 26.4983 134.301 25.9458C135.516 25.4265 136.825 25.1631 138.146 25.1721C141.111 25.1721 143.631 26.2937 145.707 28.5368C147.783 30.7799 148.821 33.6588 148.821 37.1735C148.821 40.5592 147.748 43.3911 145.603 45.6691C143.457 47.947 140.915 49.0864 137.978 49.0873C136.725 49.0981 135.482 48.86 134.322 48.3866C133.194 47.9195 132.073 47.1568 130.959 46.0985V56.8165H125.293V25.7572H130.959ZM136.954 30.4393C135.157 30.4393 133.667 31.0524 132.484 32.2785C131.3 33.5047 130.708 35.1071 130.708 37.0859C130.708 39.1068 131.3 40.7405 132.484 41.9869C133.667 43.2334 135.157 43.8582 136.954 43.8614C137.78 43.8765 138.6 43.7145 139.359 43.3863C140.117 43.0582 140.797 42.5715 141.352 41.9589C142.542 40.6914 143.137 39.0752 143.138 37.1102C143.138 35.1639 142.553 33.5651 141.384 32.3138C140.214 31.0625 138.737 30.4377 136.954 30.4393Z" fill="#3CA32B"/>
<path d="M170.318 25.7577H176.021V48.5051H170.318V46.0953C169.205 47.1495 168.089 47.9122 166.969 48.3834C165.812 48.8581 164.572 49.0964 163.322 49.0841C160.387 49.0841 157.848 47.9447 155.705 45.6659C153.563 43.3871 152.494 40.5556 152.498 37.1715C152.498 33.6592 153.534 30.7803 155.607 28.5348C157.68 26.2893 160.198 25.1677 163.161 25.1701C164.48 25.1613 165.787 25.4247 167 25.9438C168.246 26.4937 169.373 27.2817 170.318 28.2635V25.7577ZM164.322 30.4397C162.559 30.4397 161.095 31.0634 159.929 32.3106C158.764 33.5579 158.181 35.1567 158.18 37.107C158.18 39.0712 158.773 40.6874 159.96 41.9558C160.512 42.5685 161.189 43.0557 161.945 43.3845C162.701 43.7133 163.519 43.8761 164.343 43.8619C166.134 43.8619 167.62 43.2383 168.799 41.991C169.978 40.7438 170.568 39.1101 170.569 37.09C170.569 35.1121 169.979 33.5096 168.799 32.2826C167.619 31.0557 166.127 30.4414 164.322 30.4397Z" fill="#3CA32B"/>
<path d="M179.264 25.7578H185.092L190.997 40.0266L197.514 25.7578H203.358L189.124 56.8171H183.233L187.908 46.8022L179.264 25.7578Z" fill="#3CA32B"/>
<path d="M109.033 81.6706C109.228 81.4754 109.228 81.1588 109.033 80.9635L105.851 77.7815C105.655 77.5863 105.339 77.5863 105.144 77.7815C104.948 77.9768 104.948 78.2934 105.144 78.4887L107.972 81.3171L105.144 84.1455C104.948 84.3408 104.948 84.6573 105.144 84.8526C105.339 85.0479 105.655 85.0479 105.851 84.8526L109.033 81.6706ZM24 81.3171V81.8171H108.679V81.3171V80.8171H24V81.3171Z" fill="#3CA32B"/>
<path d="M119.656 88.8171H117.82L125.574 74.2663H127.39L130.32 88.8171H128.464L126.16 76.571H126.042L119.656 88.8171ZM121.277 83.1335H128.718L128.464 84.696H121.023L121.277 83.1335ZM131.553 88.8171L133.369 77.8991H134.991L134.698 79.5593H134.815C135.101 79.0189 135.537 78.5794 136.123 78.2409C136.709 77.9024 137.328 77.7363 137.979 77.7429C138.109 77.7363 138.262 77.7363 138.438 77.7429C138.614 77.7429 138.754 77.7494 138.858 77.7624L138.565 79.4616C138.513 79.4486 138.386 79.4291 138.184 79.403C137.989 79.3705 137.777 79.3574 137.549 79.364C137.022 79.3574 136.53 79.4649 136.074 79.6862C135.625 79.9076 135.248 80.2136 134.942 80.6042C134.642 80.9883 134.45 81.4278 134.366 81.9225L133.233 88.8171H131.553ZM138.216 88.8171L140.032 77.8991H141.712L139.896 88.8171H138.216ZM141.38 76.0632C141.061 76.0697 140.784 75.9623 140.55 75.7409C140.316 75.513 140.195 75.2429 140.189 74.9304C140.195 74.6179 140.316 74.3509 140.55 74.1296C140.784 73.9082 141.061 73.7975 141.38 73.7975C141.712 73.7975 141.995 73.9082 142.23 74.1296C142.464 74.3509 142.584 74.6179 142.591 74.9304C142.584 75.2429 142.464 75.513 142.23 75.7409C141.995 75.9623 141.712 76.0697 141.38 76.0632ZM148.824 77.8991L148.59 79.3249H142.711L142.945 77.8991H148.824ZM142.887 88.8171L144.957 76.3952C145.055 75.7702 145.283 75.2526 145.641 74.8425C146.005 74.4258 146.438 74.1133 146.939 73.905C147.447 73.6901 147.958 73.5827 148.473 73.5827C148.889 73.5892 149.221 73.625 149.469 73.6901C149.723 73.7552 149.905 73.8171 150.016 73.8757L149.313 75.321C149.228 75.2884 149.114 75.2526 148.971 75.2136C148.828 75.1745 148.635 75.1517 148.395 75.1452C147.841 75.1517 147.418 75.2949 147.125 75.5749C146.839 75.8548 146.643 76.265 146.539 76.8054L144.566 88.8171H142.887ZM153.215 88.8171L155.627 74.2663H165.431L165.002 76.8054H158.283L157.707 80.2722H163.928L163.508 82.8015H157.287L156.711 86.278H163.469L163.049 88.8171H153.215ZM168.139 85.6725L168.735 82.0495H169.174L173.383 77.8991H176.85L171.255 83.3972H170.532L168.139 85.6725ZM164.878 88.8171L167.299 74.2663H170.317L167.905 88.8171H164.878ZM171.694 88.8171L169.272 84.071L171.645 81.9225L175.239 88.8171H171.694ZM183.748 84.1784L184.802 77.8991H187.82L186.003 88.8171H183.103L183.425 86.8347H183.308C182.976 87.4662 182.488 87.9805 181.843 88.3776C181.199 88.7682 180.47 88.9603 179.656 88.9538C178.92 88.9538 178.302 88.791 177.8 88.4655C177.299 88.1335 176.944 87.6615 176.736 87.0495C176.528 86.4375 176.495 85.7051 176.638 84.8522L177.8 77.8991H180.828L179.763 84.3249C179.659 84.9629 179.747 85.4707 180.027 85.8483C180.307 86.2194 180.733 86.4017 181.306 86.3952C181.664 86.3952 182.016 86.3138 182.361 86.1511C182.706 85.9818 183.002 85.7311 183.25 85.3991C183.503 85.0671 183.669 84.6602 183.748 84.1784ZM194.053 88.9929C193.467 88.9929 192.985 88.8952 192.608 88.6999C192.237 88.5046 191.947 88.2604 191.739 87.9675C191.53 87.668 191.381 87.3685 191.289 87.069H191.143L190.87 88.8171H187.872L190.284 74.2663H193.311L192.413 79.7448H192.5C192.683 79.4453 192.924 79.1426 193.223 78.8366C193.529 78.5306 193.907 78.2767 194.356 78.0749C194.805 77.8666 195.336 77.7624 195.948 77.7624C196.748 77.7624 197.445 77.9707 198.038 78.3874C198.637 78.7975 199.069 79.4193 199.336 80.2526C199.603 81.086 199.633 82.1276 199.424 83.3776C199.222 84.5886 198.855 85.614 198.321 86.4538C197.787 87.2871 197.149 87.9186 196.407 88.3483C195.671 88.778 194.887 88.9929 194.053 88.9929ZM193.506 86.5905C194.008 86.584 194.45 86.4473 194.834 86.1804C195.219 85.9069 195.538 85.5293 195.791 85.0475C196.045 84.5593 196.221 83.9994 196.319 83.3679C196.429 82.7363 196.436 82.183 196.338 81.7077C196.241 81.2259 196.045 80.8483 195.752 80.5749C195.459 80.3015 195.062 80.1647 194.561 80.1647C194.073 80.1647 193.637 80.2982 193.252 80.5651C192.868 80.8255 192.546 81.1966 192.286 81.6784C192.032 82.1537 191.853 82.7168 191.748 83.3679C191.644 84.0124 191.641 84.5755 191.739 85.0573C191.843 85.5391 192.041 85.9134 192.334 86.1804C192.634 86.4473 193.025 86.584 193.506 86.5905Z" fill="#3CA32B"/>
</svg>
