<svg width="204" height="83" viewBox="0 0 204 83" fill="none" xmlns="http://www.w3.org/2000/svg">
<path d="M29.8873 49.8032C27.7997 49.8032 25.706 49.8968 23.6244 49.7752C21.7496 49.6657 21.0371 48.6694 21.0152 46.627C20.8827 33.7851 19.713 21.0478 16.547 8.55256C15.9707 6.27661 15.3153 4.02133 14.7098 1.75268C14.677 1.63103 14.7779 1.46681 14.7329 1.63103L26.6312 0.21875C25.6732 8.49052 24.6944 16.9265 23.7229 25.3613C23.1855 30.0324 22.6558 34.7015 22.1338 39.3686C22.0061 40.4998 21.8432 41.6324 21.814 42.7661C21.7229 46.2791 23.7436 48.5028 27.2234 48.7984C28.1 48.8738 28.9754 48.9553 29.8508 49.0344L29.8873 49.8032Z" fill="#F0FDF4"/>
<path d="M18.5405 45.624C13.4923 33.8148 7.58327 22.8766 0 12.9249L7.12246 10.2074C10.9305 15.4077 19.1205 40.3957 18.5405 45.624Z" fill="#F0FDF4"/>
<path d="M7.99609 7.02983L14.4741 5.78906C17.5977 16.782 19.0008 28.0158 19.5807 38.9978L7.99609 7.02983Z" fill="#F0FDF4"/>
<path d="M30.4555 53.0938C26.6328 55.9852 22.7956 56.355 22.1719 54.1216L30.4555 53.0938Z" fill="#F0FDF4"/>
<path d="M28.1088 51.5542C25.9677 52.4057 23.8059 53.1137 21.8496 51.1698L28.1088 51.5542Z" fill="#F0FDF4"/>
<path d="M54.0316 2.27872C52.3951 2.01232 50.7488 1.80675 49.0953 1.64618C43.2215 1.07323 37.3502 0.462583 31.4654 0.0149341C29.1857 -0.159016 27.7668 1.19853 27.5018 3.46597C25.986 16.4794 24.4889 29.4953 23.0104 42.5136C22.7235 45.0377 24.1861 47.0144 26.7418 47.3307C33.7245 48.1968 40.7241 48.9486 46.8715 49.6492C51.5489 49.8366 52.5921 48.9887 53.1647 45.2408C53.245 44.7166 53.2863 44.185 53.341 43.6595C54.655 31.371 55.9725 19.0818 57.2938 6.79171C57.5698 4.21286 56.563 2.69231 54.0316 2.27872ZM49.2898 45.6459C42.1163 44.8601 35.2796 44.0938 28.4355 43.3736C27.0434 43.2264 26.9206 42.4138 27.0531 41.3057C27.8231 34.8342 28.5839 28.362 29.3353 21.8889C29.9225 16.8504 30.4891 11.8095 31.0873 6.77224C31.1821 5.96574 31.3937 5.17263 31.5809 4.22746L53.6389 6.78806C52.175 19.8514 50.7391 32.6787 49.2874 45.6459H49.2898Z" fill="#F0FDF4"/>
<path d="M34.5788 24.4796L34.7004 23.3386C34.8155 22.2073 35.1717 21.37 35.7691 20.8266C36.3665 20.2833 37.1633 20.0627 38.1595 20.1649C39.1516 20.2671 39.875 20.6466 40.3298 21.3035C40.7845 21.9603 40.9531 22.8573 40.8356 23.9942L40.213 30.0764L38.2507 29.8757L38.8805 23.7218C38.9445 23.0916 38.8999 22.6213 38.7467 22.3107C38.6722 22.1586 38.5579 22.0296 38.416 21.9373C38.274 21.845 38.1098 21.7928 37.9406 21.7864C37.7777 21.7609 37.6109 21.7806 37.4585 21.8434C37.306 21.9063 37.1738 22.0099 37.0762 22.1428C36.867 22.4177 36.73 22.8727 36.6652 23.5077L36.0366 29.6494L34.0742 29.4475L34.4317 25.9563L33.6231 25.8736C33.5138 26.1797 33.298 26.4362 33.0152 26.5962C32.7067 26.7641 32.3527 26.8288 32.0048 26.7811L31.6875 26.7482L32.4012 24.2558L34.5788 24.4796Z" fill="#F0FDF4"/>
<path d="M45.5234 30.6263C44.6691 30.5387 44.0129 30.3623 43.5549 30.0971C43.1111 29.8473 42.7752 29.4422 42.6114 28.9598C42.4396 28.4667 42.3962 27.8058 42.4813 26.977L42.5604 26.2058C42.6966 24.8798 42.9397 23.8398 43.2899 23.0856C43.6401 22.3314 44.1264 21.8071 44.7489 21.5127C45.3674 21.2184 46.212 21.1263 47.2827 21.2366L49.0579 21.4191L49.2573 24.0113L48.94 23.9785C48.5918 23.9532 48.2608 23.8172 47.9952 23.5904C47.7485 23.3782 47.5866 23.0841 47.5393 22.762C46.8317 22.689 46.2861 22.7466 45.9028 22.9348C45.5194 23.1229 45.2219 23.4708 45.0103 23.9785C44.7988 24.4869 44.6366 25.2918 44.524 26.3931L44.4377 27.2945C44.3728 27.9165 44.4376 28.367 44.6322 28.6459C44.8267 28.9249 45.185 29.0916 45.707 29.1459L46.9824 29.2761C47.1045 29.0306 47.3115 28.8379 47.5648 28.7335C47.8468 28.5954 48.162 28.5393 48.4743 28.5717L48.7916 28.6046L48.2724 30.1543L48.4658 31.7843L48.1484 31.7527C47.8335 31.7223 47.5337 31.6029 47.284 31.4085C47.06 31.2537 46.8991 31.0236 46.8304 30.7601L45.5234 30.6263Z" fill="#F0FDF4"/>
<path d="M67.8509 17.7617H73.783L85.6023 48.5084H79.5231L77.1193 42.1744H64.5791L62.0793 48.5084H56L67.8509 17.7617ZM70.8541 25.9118L66.7299 36.4681H74.949L70.8541 25.9118Z" fill="#F0FDF4"/>
<path d="M88.0469 25.757H92.9358V28.6205C93.4643 27.4917 94.1675 26.6349 95.0453 26.0502C95.8957 25.4732 96.9006 25.1671 97.9281 25.1719C98.7348 25.1896 99.527 25.3897 100.246 25.757L98.4692 30.669C97.8004 30.3349 97.2505 30.1678 96.8192 30.1678C95.9414 30.1678 95.1997 30.7112 94.5942 31.7979C93.9887 32.8845 93.6856 35.0166 93.6848 38.1939L93.7067 39.3009V48.4983H88.0469V25.757Z" fill="#F0FDF4"/>
<path d="M105.293 16.3948C105.774 16.3888 106.25 16.4822 106.693 16.6694C107.136 16.8565 107.535 17.1333 107.866 17.4823C108.214 17.8257 108.488 18.2362 108.673 18.6889C108.857 19.1416 108.948 19.6271 108.939 20.1159C108.948 20.599 108.857 21.0786 108.675 21.5259C108.492 21.9731 108.221 22.3786 107.877 22.7178C107.55 23.0627 107.156 23.3363 106.719 23.5215C106.281 23.7068 105.81 23.7997 105.336 23.7944C104.851 23.8017 104.37 23.7082 103.923 23.5197C103.477 23.3313 103.074 23.052 102.741 22.6996C102.392 22.3503 102.118 21.9343 101.933 21.4763C101.749 21.0184 101.659 20.528 101.669 20.0344C101.668 19.0715 102.05 18.1479 102.729 17.466C103.409 16.7842 104.331 16.3998 105.293 16.3972V16.3948ZM102.442 25.7614H108.149V48.5087H102.446L102.442 25.7614Z" fill="#F0FDF4"/>
<path d="M110.609 25.7586H112.636C112.649 22.7775 112.698 21.0149 112.782 20.4707C112.935 19.217 113.462 18.224 114.363 17.4917C115.263 16.7594 116.534 16.3944 118.176 16.3969C119.36 16.3969 120.697 16.6689 122.188 17.2131V21.5594C121.366 21.3234 120.69 21.205 120.161 21.2042C119.494 21.2042 119.005 21.3441 118.702 21.6227C118.478 21.8319 118.367 22.2637 118.368 22.9182L118.347 25.761H121.961V30.589H118.347V48.4999H112.644V30.5866H110.617L110.609 25.7586Z" fill="#F0FDF4"/>
<path d="M130.959 25.7572V28.2655C131.915 27.2858 133.049 26.4983 134.301 25.9458C135.516 25.4265 136.825 25.1631 138.146 25.1721C141.111 25.1721 143.631 26.2937 145.707 28.5368C147.783 30.7799 148.821 33.6588 148.821 37.1735C148.821 40.5592 147.748 43.3911 145.603 45.6691C143.457 47.947 140.915 49.0864 137.978 49.0873C136.725 49.0981 135.482 48.86 134.322 48.3866C133.194 47.9195 132.073 47.1568 130.959 46.0985V56.8165H125.293V25.7572H130.959ZM136.954 30.4393C135.157 30.4393 133.667 31.0524 132.484 32.2785C131.3 33.5047 130.708 35.1071 130.708 37.0859C130.708 39.1068 131.3 40.7405 132.484 41.9869C133.667 43.2334 135.157 43.8582 136.954 43.8614C137.78 43.8765 138.6 43.7145 139.359 43.3863C140.117 43.0582 140.797 42.5715 141.352 41.9589C142.542 40.6914 143.137 39.0752 143.138 37.1102C143.138 35.1639 142.553 33.5651 141.384 32.3138C140.214 31.0625 138.737 30.4377 136.954 30.4393Z" fill="#F0FDF4"/>
<path d="M170.318 25.7577H176.021V48.5051H170.318V46.0953C169.205 47.1495 168.089 47.9122 166.969 48.3834C165.812 48.8581 164.572 49.0964 163.322 49.0841C160.387 49.0841 157.848 47.9447 155.705 45.6659C153.563 43.3871 152.494 40.5556 152.498 37.1715C152.498 33.6592 153.534 30.7803 155.607 28.5348C157.68 26.2893 160.198 25.1677 163.161 25.1701C164.48 25.1613 165.787 25.4247 167 25.9438C168.246 26.4937 169.373 27.2817 170.318 28.2635V25.7577ZM164.322 30.4397C162.559 30.4397 161.095 31.0634 159.929 32.3106C158.764 33.5579 158.181 35.1567 158.18 37.107C158.18 39.0712 158.773 40.6874 159.96 41.9558C160.512 42.5685 161.189 43.0557 161.945 43.3845C162.701 43.7133 163.519 43.8761 164.343 43.8619C166.134 43.8619 167.62 43.2383 168.799 41.991C169.978 40.7438 170.568 39.1101 170.569 37.09C170.569 35.1121 169.979 33.5096 168.799 32.2826C167.619 31.0557 166.127 30.4414 164.322 30.4397Z" fill="#F0FDF4"/>
<path d="M179.264 25.7578H185.092L190.997 40.0266L197.514 25.7578H203.358L189.124 56.8171H183.233L187.908 46.8022L179.264 25.7578Z" fill="#F0FDF4"/>
<path d="M110.255 74.8953C110.45 74.7 110.45 74.3834 110.255 74.1882L107.073 71.0062C106.877 70.8109 106.561 70.8109 106.365 71.0062C106.17 71.2014 106.17 71.518 106.365 71.7133L109.194 74.5417L106.365 77.3701C106.17 77.5654 106.17 77.882 106.365 78.0773C106.561 78.2725 106.877 78.2725 107.073 78.0773L110.255 74.8953ZM24 74.5417V75.0417H109.901V74.5417V74.0417H24V74.5417Z" fill="#F0FDF4"/>
<path d="M199.286 77.4128L200.341 71.1335H203.358L201.542 82.0515H198.641L198.964 80.0691H198.847C198.514 80.7006 198.026 81.2149 197.382 81.612C196.737 82.0027 196.008 82.1947 195.194 82.1882C194.458 82.1882 193.84 82.0254 193.339 81.6999C192.837 81.3679 192.483 80.8959 192.274 80.2839C192.066 79.6719 192.033 78.9395 192.177 78.0866L193.339 71.1335H196.366L195.302 77.5593C195.197 78.1973 195.285 78.7051 195.565 79.0827C195.845 79.4538 196.272 79.6361 196.845 79.6296C197.203 79.6296 197.554 79.5482 197.899 79.3855C198.244 79.2162 198.541 78.9655 198.788 78.6335C199.042 78.3015 199.208 77.8946 199.286 77.4128Z" fill="#F0FDF4"/>
<path d="M183.639 75.7429L182.603 82.0515H179.576L181.393 71.1335H184.371L184.059 73.0769H184.156C184.495 72.4323 184.967 71.9245 185.572 71.5534C186.184 71.1823 186.897 70.9968 187.711 70.9968C188.466 70.9968 189.098 71.1628 189.605 71.4948C190.113 71.8269 190.471 72.2989 190.68 72.9109C190.894 73.5228 190.93 74.2553 190.787 75.1081L189.625 82.0515H186.598L187.672 75.6452C187.782 74.9812 187.698 74.4603 187.418 74.0827C187.144 73.7051 186.702 73.5131 186.09 73.5066C185.68 73.5066 185.302 73.5977 184.957 73.78C184.618 73.9558 184.332 74.2097 184.098 74.5417C183.87 74.8737 183.717 75.2741 183.639 75.7429Z" fill="#F0FDF4"/>
<path d="M173.294 82.2663C172.168 82.2663 171.224 82.0352 170.462 81.573C169.7 81.1107 169.157 80.4564 168.831 79.6101C168.512 78.7637 168.45 77.7611 168.646 76.6023C168.828 75.489 169.189 74.5124 169.73 73.6726C170.276 72.8262 170.967 72.1687 171.8 71.6999C172.64 71.2312 173.59 70.9968 174.651 70.9968C175.387 70.9968 176.054 71.114 176.653 71.3484C177.259 71.5762 177.767 71.9245 178.177 72.3933C178.593 72.8555 178.883 73.4349 179.046 74.1316C179.215 74.8217 179.222 75.6322 179.065 76.5632L178.929 77.364H169.72L170.023 75.4987H177.776L176.282 75.9675C176.38 75.4076 176.39 74.9258 176.312 74.5222C176.24 74.1185 176.071 73.806 175.804 73.5847C175.537 73.3633 175.159 73.2527 174.671 73.2527C174.17 73.2527 173.711 73.3698 173.294 73.6042C172.884 73.8321 172.542 74.1446 172.269 74.5417C171.995 74.9389 171.816 75.3913 171.731 75.8991L171.517 77.2175C171.426 77.8034 171.432 78.3047 171.536 78.7214C171.64 79.1381 171.849 79.4571 172.161 79.6784C172.48 79.8998 172.91 80.0105 173.45 80.0105C173.808 80.0105 174.137 79.9616 174.437 79.864C174.743 79.7598 175.009 79.6133 175.237 79.4245C175.472 79.2292 175.664 78.9981 175.814 78.7312L178.577 78.9558C178.33 79.6264 177.962 80.209 177.474 80.7038C176.985 81.1986 176.39 81.5827 175.687 81.8562C174.99 82.1296 174.192 82.2663 173.294 82.2663Z" fill="#F0FDF4"/>
<path d="M150.43 82.0515L152.246 71.1335H155.117L154.805 73.0769H154.932C155.27 72.4323 155.736 71.9245 156.328 71.5534C156.921 71.1823 157.588 70.9968 158.33 70.9968C159.066 70.9968 159.668 71.1856 160.137 71.5632C160.606 71.9343 160.873 72.4389 160.938 73.0769H161.045C161.371 72.4454 161.856 71.9408 162.5 71.5632C163.151 71.1856 163.877 70.9968 164.678 70.9968C165.687 70.9968 166.458 71.3223 166.992 71.9734C167.526 72.6179 167.695 73.5293 167.5 74.7077L166.279 82.0515H163.252L164.385 75.3132C164.483 74.7012 164.395 74.2455 164.121 73.946C163.848 73.6465 163.47 73.4968 162.988 73.4968C162.442 73.4968 161.986 73.6693 161.621 74.0144C161.257 74.3594 161.029 74.8184 160.938 75.3913L159.815 82.0515H156.885L158.037 75.2351C158.115 74.7077 158.027 74.2878 157.774 73.9753C157.52 73.6563 157.142 73.4968 156.641 73.4968C156.309 73.4903 155.993 73.5717 155.694 73.7409C155.401 73.9102 155.153 74.1446 154.951 74.4441C154.75 74.7435 154.616 75.0984 154.551 75.5085L153.457 82.0515H150.43Z" fill="#F0FDF4"/>
<path d="M150.906 71.1335L150.671 72.5593H144.792L145.027 71.1335H150.906ZM144.968 82.0515L147.038 69.6296C147.136 69.0046 147.364 68.487 147.722 68.0769C148.087 67.6602 148.519 67.3477 149.021 67.1394C149.529 66.9245 150.04 66.8171 150.554 66.8171C150.971 66.8236 151.303 66.8594 151.55 66.9245C151.804 66.9896 151.986 67.0515 152.097 67.1101L151.394 68.5554C151.309 68.5228 151.195 68.487 151.052 68.448C150.909 68.4089 150.717 68.3861 150.476 68.3796C149.922 68.3861 149.499 68.5293 149.206 68.8093C148.92 69.0892 148.725 69.4994 148.62 70.0398L146.648 82.0515H144.968Z" fill="#F0FDF4"/>
<path d="M140.297 82.0515L142.114 71.1335H143.793L141.977 82.0515H140.297ZM143.461 69.2976C143.142 69.3041 142.866 69.1967 142.631 68.9753C142.397 68.7474 142.276 68.4773 142.27 68.1648C142.276 67.8523 142.397 67.5853 142.631 67.364C142.866 67.1426 143.142 67.032 143.461 67.032C143.793 67.032 144.077 67.1426 144.311 67.364C144.545 67.5853 144.666 67.8523 144.672 68.1648C144.666 68.4773 144.545 68.7474 144.311 68.9753C144.077 69.1967 143.793 69.3041 143.461 69.2976Z" fill="#F0FDF4"/>
<path d="M133.634 82.0515L135.451 71.1335H137.072L136.779 72.7937H136.896C137.182 72.2533 137.619 71.8139 138.205 71.4753C138.791 71.1368 139.409 70.9708 140.06 70.9773C140.19 70.9708 140.343 70.9708 140.519 70.9773C140.695 70.9773 140.835 70.9838 140.939 70.9968L140.646 72.696C140.594 72.683 140.467 72.6635 140.265 72.6374C140.07 72.6049 139.858 72.5918 139.63 72.5984C139.103 72.5918 138.612 72.6993 138.156 72.9206C137.707 73.142 137.329 73.448 137.023 73.8386C136.723 74.2227 136.531 74.6622 136.447 75.157L135.314 82.0515H133.634Z" fill="#F0FDF4"/>
<path d="M121.737 82.0515H119.901L127.655 67.5007H129.471L132.401 82.0515H130.546L128.241 69.8054H128.124L121.737 82.0515ZM123.358 76.3679H130.799L130.546 77.9304H123.104L123.358 76.3679Z" fill="#F0FDF4"/>
</svg>
