<svg width="51" height="15" viewBox="0 0 51 15" fill="none" xmlns="http://www.w3.org/2000/svg">
<path d="M7.55202 12.8486C7.03012 12.8486 6.5067 12.872 5.98631 12.8416C5.5176 12.8143 5.33948 12.5652 5.33401 12.0546C5.30087 8.84411 5.00846 5.65978 4.21694 2.53597C4.07286 1.96698 3.90903 1.40316 3.75766 0.835996C3.74945 0.805586 3.77468 0.764531 3.76343 0.805586L6.73801 0.452515C6.49849 2.52046 6.2538 4.62946 6.01093 6.73815C5.87658 7.90593 5.74415 9.0732 5.61365 10.24C5.58174 10.5228 5.54101 10.8059 5.53371 11.0893C5.51091 11.9676 6.0161 12.5235 6.88604 12.5974C7.1052 12.6163 7.32405 12.6367 7.54291 12.6564L7.55202 12.8486Z" fill="#9CA3AF"/>
<path d="M4.71533 11.8038C3.45328 8.85153 1.97602 6.11697 0.0802002 3.62906L1.86082 2.94968C2.81283 4.24974 4.86032 10.4968 4.71533 11.8038Z" fill="#9CA3AF"/>
<path d="M2.07922 2.15528L3.69874 1.84509C4.47962 4.59333 4.83039 7.40178 4.97538 10.1473L2.07922 2.15528Z" fill="#9CA3AF"/>
<path d="M7.69407 13.6713C6.73841 14.3941 5.7791 14.4866 5.62317 13.9283L7.69407 13.6713Z" fill="#9CA3AF"/>
<path d="M7.1074 13.2864C6.57213 13.4993 6.03168 13.6763 5.5426 13.1903L7.1074 13.2864Z" fill="#9CA3AF"/>
<path d="M13.5882 0.967523C13.1791 0.900923 12.7675 0.849529 12.3541 0.809386C10.8857 0.666151 9.41783 0.513488 7.94665 0.401576C7.37672 0.358088 7.02199 0.697474 6.95573 1.26433C6.57679 4.5177 6.20251 7.77166 5.83289 11.0262C5.76116 11.6573 6.12682 12.1514 6.76575 12.2305C8.51141 12.447 10.2613 12.635 11.7982 12.8101C12.9675 12.857 13.2283 12.645 13.3715 11.7081C13.3915 11.577 13.4019 11.4441 13.4155 11.3127C13.744 8.2406 14.0734 5.16829 14.4037 2.09577C14.4727 1.45106 14.2211 1.07092 13.5882 0.967523ZM12.4027 11.8093C10.6094 11.6129 8.90018 11.4213 7.18917 11.2412C6.84114 11.2044 6.81044 11.0013 6.84357 10.7243C7.03608 9.1064 7.22626 7.48834 7.41411 5.87007C7.56092 4.61045 7.70257 3.35022 7.85212 2.0909C7.87583 1.88928 7.92871 1.691 7.97553 1.45471L13.49 2.09486C13.124 5.36069 12.7651 8.56752 12.4021 11.8093H12.4027Z" fill="#9CA3AF"/>
<path d="M8.7249 6.51774L8.7553 6.23249C8.78407 5.94966 8.87313 5.74034 9.02248 5.6045C9.17183 5.46866 9.37102 5.41352 9.62007 5.43906C9.8681 5.46461 10.049 5.55949 10.1626 5.72371C10.2763 5.88793 10.3185 6.11216 10.2891 6.3964L10.1335 7.91695L9.64287 7.86677L9.80032 6.32828C9.81633 6.17075 9.80518 6.05316 9.76688 5.97551C9.74825 5.9375 9.71968 5.90524 9.68419 5.88216C9.64871 5.85908 9.60765 5.84605 9.56536 5.84444C9.52463 5.83806 9.48293 5.84299 9.44482 5.8587C9.40671 5.87442 9.37364 5.90031 9.34924 5.93355C9.29696 6.00227 9.26271 6.11601 9.2465 6.27476L9.08935 7.8102L8.59875 7.75972L8.68812 6.88693L8.48598 6.86625C8.45864 6.94276 8.40469 7.00688 8.334 7.04689C8.25689 7.08886 8.16838 7.10505 8.08141 7.09311L8.00208 7.0849L8.1805 6.46178L8.7249 6.51774Z" fill="#9CA3AF"/>
<path d="M11.4612 8.05442C11.2476 8.03252 11.0835 7.98842 10.969 7.92213C10.8581 7.85966 10.7741 7.7584 10.7332 7.63779C10.6902 7.51452 10.6794 7.34929 10.7006 7.14209L10.7204 6.94928C10.7544 6.6178 10.8152 6.35779 10.9028 6.16924C10.9903 5.9807 11.1119 5.84962 11.2675 5.77603C11.4221 5.70243 11.6333 5.67942 11.901 5.707L12.3448 5.75261L12.3946 6.40067L12.3153 6.39246C12.2282 6.38613 12.1455 6.35214 12.0791 6.29545C12.0174 6.2424 11.9769 6.16886 11.9651 6.08835C11.7882 6.0701 11.6518 6.0845 11.556 6.13153C11.4601 6.17857 11.3858 6.26554 11.3329 6.39246C11.28 6.51958 11.2395 6.7208 11.2113 6.99612L11.1897 7.22146C11.1735 7.37696 11.1897 7.48958 11.2383 7.55933C11.287 7.62907 11.3765 7.67073 11.507 7.68432L11.8259 7.71686C11.8564 7.6555 11.9082 7.60731 11.9715 7.58122C12.042 7.54669 12.1208 7.53268 12.1989 7.54078L12.2782 7.54899L12.1484 7.93642L12.1967 8.34393L12.1174 8.33602C12.0387 8.32841 11.9637 8.29856 11.9013 8.24996C11.8453 8.21127 11.8051 8.15375 11.7879 8.08787L11.4612 8.05442Z" fill="#9CA3AF"/>
<path d="M17.0429 4.83827H18.526L21.4808 12.5249H19.961L19.36 10.9414H16.225L15.6 12.5249H14.0802L17.0429 4.83827ZM17.7937 6.8758L16.7627 9.51487H18.8175L17.7937 6.8758Z" fill="#9CA3AF"/>
<path d="M22.0919 6.8371H23.3142V7.55298C23.4463 7.27076 23.6221 7.05657 23.8415 6.91039C24.0541 6.76615 24.3054 6.68961 24.5622 6.69083C24.7639 6.69525 24.962 6.74526 25.1416 6.8371L24.6975 8.0651C24.5303 7.98157 24.3928 7.9398 24.285 7.9398C24.0656 7.9398 23.8801 8.07564 23.7288 8.34731C23.5774 8.61898 23.5016 9.15198 23.5014 9.94632L23.5069 10.2231V12.5224H22.0919V6.8371Z" fill="#9CA3AF"/>
<path d="M26.4035 4.49654C26.5236 4.49503 26.6428 4.5184 26.7535 4.56519C26.8642 4.61198 26.964 4.68117 27.0467 4.76842C27.1336 4.85427 27.2022 4.9569 27.2484 5.07007C27.2945 5.18324 27.3172 5.30461 27.3151 5.42681C27.3171 5.54758 27.2946 5.6675 27.2489 5.77932C27.2032 5.89113 27.1354 5.9925 27.0494 6.0773C26.9677 6.16351 26.8692 6.23192 26.7598 6.27823C26.6505 6.32454 26.5328 6.34776 26.4141 6.34644C26.2929 6.34828 26.1727 6.3249 26.061 6.27778C25.9494 6.23066 25.8487 6.16084 25.7655 6.07274C25.6783 5.98543 25.6096 5.88142 25.5635 5.76693C25.5175 5.65244 25.495 5.52983 25.4974 5.40644C25.4973 5.16573 25.5926 4.93482 25.7625 4.76435C25.9324 4.59389 26.1629 4.4978 26.4035 4.49715V4.49654ZM25.6907 6.83819H27.1175V12.525H25.6916L25.6907 6.83819Z" fill="#9CA3AF"/>
<path d="M27.7327 6.83748H28.2394C28.2426 6.09221 28.2548 5.65156 28.2758 5.51552C28.3141 5.20209 28.4459 4.95383 28.671 4.77076C28.8961 4.58768 29.2139 4.49645 29.6242 4.49706C29.9203 4.49706 30.2546 4.56508 30.6273 4.70112V5.7877C30.4218 5.7287 30.2529 5.6991 30.1206 5.6989C29.9537 5.6989 29.8315 5.73387 29.7558 5.80351C29.6999 5.85582 29.6721 5.96378 29.6723 6.12739L29.6671 6.83809H30.5705V8.0451H29.6671V12.5228H28.2412V8.04449H27.7345L27.7327 6.83748Z" fill="#9CA3AF"/>
<path d="M32.8199 6.83714V7.46422C33.0589 7.21928 33.3425 7.02242 33.6555 6.88428C33.9592 6.75446 34.2864 6.68862 34.6166 6.69087C35.3579 6.69087 35.988 6.97126 36.507 7.53203C37.0259 8.09281 37.2854 8.81254 37.2854 9.69121C37.2854 10.5376 37.0172 11.2456 36.4808 11.8151C35.9444 12.3846 35.3091 12.6695 34.5747 12.6697C34.2614 12.6724 33.9508 12.6128 33.6607 12.4945C33.3786 12.3777 33.0983 12.187 32.8199 11.9225V14.602H31.4034V6.83714H32.8199ZM34.3188 8.00766C33.8695 8.00766 33.4969 8.16093 33.2011 8.46747C32.9052 8.77402 32.7573 9.17463 32.7573 9.66931C32.7573 10.1745 32.9052 10.583 33.2011 10.8946C33.4969 11.2062 33.8695 11.3624 34.3188 11.3632C34.5253 11.367 34.7303 11.3265 34.9199 11.2444C35.1095 11.1624 35.2794 11.0407 35.4182 10.8876C35.7157 10.5707 35.8645 10.1666 35.8647 9.6754C35.8647 9.18882 35.7185 8.78912 35.4261 8.47629C35.1337 8.16347 34.7646 8.00726 34.3188 8.00766Z" fill="#9CA3AF"/>
<path d="M42.6596 6.83726H44.0855V12.5241H42.6596V11.9217C42.3816 12.1852 42.1025 12.3759 41.8225 12.4937C41.5332 12.6124 41.2232 12.6719 40.9106 12.6689C40.1768 12.6689 39.5422 12.384 39.0066 11.8143C38.471 11.2446 38.2037 10.5368 38.2047 9.69072C38.2047 8.81265 38.4638 8.09293 38.9819 7.53154C39.5001 6.97016 40.1296 6.68977 40.8705 6.69038C41.2002 6.68816 41.5269 6.75401 41.8301 6.88379C42.1417 7.02127 42.4234 7.21826 42.6596 7.46373V6.83726ZM41.1608 8.00778C40.72 8.00778 40.3539 8.16369 40.0625 8.4755C39.7711 8.78731 39.6253 9.18701 39.6251 9.6746C39.6251 10.1656 39.7735 10.5697 40.0701 10.8868C40.2081 11.04 40.3773 11.1618 40.5664 11.244C40.7554 11.3262 40.9598 11.3669 41.1659 11.3633C41.6138 11.3633 41.9851 11.2074 42.2799 10.8956C42.5748 10.5838 42.7223 10.1754 42.7225 9.67034C42.7225 9.17586 42.575 8.77525 42.2799 8.4685C41.9849 8.16176 41.6118 8.00818 41.1608 8.00778Z" fill="#9CA3AF"/>
<path d="M44.8961 6.8373H46.3533L47.8294 10.4045L49.4586 6.8373H50.9197L47.3613 14.6021H45.8886L47.0573 12.0984L44.8961 6.8373Z" fill="#9CA3AF"/>
</svg>
