<svg width="699" height="992" viewBox="0 0 699 992" fill="none" xmlns="http://www.w3.org/2000/svg">
<path d="M1239.93 1604.71C1241.49 1612.04 1236.6 1619.17 1229.21 1620.4C1165.84 1630.93 1102.66 1643.53 1038.84 1650.03C977.251 1656.3 948.817 1627.83 937.345 1561.96C865.38 1147.74 784.272 806.195 591.36 355.181C555.915 272.313 515.32 178.654 495.754 145.092C482.23 121.894 494.61 108.92 503.546 103.119C504.064 102.783 504.323 102.614 509.121 100.712C513.919 98.8089 515.593 98.5051 518.942 97.8974L758.311 54.4637C812.922 44.5544 840.228 39.5997 858.741 54.3512C877.254 69.1026 878.515 96.8181 881.038 152.249C891.682 386.178 902.471 623.478 913.429 860.722C920.549 1014.45 927.908 1168.08 935.508 1321.6C937.313 1358.81 937.977 1396.26 943 1433.04C958.54 1547.02 1036.01 1608.29 1150.81 1599.64C1175.93 1597.78 1201.04 1596.07 1226.15 1594.32C1232.68 1593.87 1238.57 1598.3 1239.93 1604.71Z" fill="url(#paint0_linear_263_89676)"/>
<path d="M860.23 1422.71C866.602 1441.15 847.42 1449.26 835.958 1433.46C608.684 1120.13 361.657 835.95 74.9251 588.181C65.2782 579.845 66.2827 564.588 76.9837 557.712L254.377 443.74C261.539 439.138 270.654 439.58 276.77 445.531C425.65 590.402 776.556 1180.64 860.23 1422.71Z" fill="url(#paint1_linear_263_89676)"/>
<path d="M284.736 347.227C278.5 337.297 282.644 324.175 293.444 319.653L457.187 251.092C466.247 247.299 476.735 251.043 481.32 259.744C632.68 546.956 743.866 848.534 831.539 1150.2C837.633 1171.17 809.818 1183.37 798.198 1164.86L284.736 347.227Z" fill="url(#paint2_linear_263_89676)"/>
<defs>
<linearGradient id="paint0_linear_263_89676" x1="734.516" y1="55.8574" x2="992.28" y2="1659.58" gradientUnits="userSpaceOnUse">
<stop stop-color="#70C562"/>
<stop offset="1" stop-color="#178605"/>
</linearGradient>
<linearGradient id="paint1_linear_263_89676" x1="336.213" y1="421.213" x2="576.106" y2="1555.66" gradientUnits="userSpaceOnUse">
<stop stop-color="#70C562"/>
<stop offset="1" stop-color="#178605"/>
</linearGradient>
<linearGradient id="paint2_linear_263_89676" x1="451.075" y1="249.069" x2="676.014" y2="1312.79" gradientUnits="userSpaceOnUse">
<stop stop-color="#70C562"/>
<stop offset="1" stop-color="#178605"/>
</linearGradient>
</defs>
</svg>
