<svg width="21" height="18" viewBox="0 0 21 18" fill="none" xmlns="http://www.w3.org/2000/svg">
<path d="M20 14.4514H13.35M3.85 14.4514H1M20 4.09843H17.15M7.65 4.09843H1M5.75 11.6278H11.45C12.495 11.6278 13.35 12.0984 13.35 13.5102V15.3925C13.35 16.8043 12.495 17.2749 11.45 17.2749H5.75C4.705 17.2749 3.85 16.8043 3.85 15.3925V13.5102C3.85 12.0984 4.705 11.6278 5.75 11.6278ZM9.55 1.2749H15.25C16.295 1.2749 17.15 1.74549 17.15 3.15726V5.03961C17.15 6.45137 16.295 6.92196 15.25 6.92196H9.55C8.505 6.92196 7.65 6.45137 7.65 5.03961V3.15726C7.65 1.74549 8.505 1.2749 9.55 1.2749Z" stroke="#6B7280" stroke-width="1.3" stroke-miterlimit="10" stroke-linecap="round" stroke-linejoin="round"/>
</svg>
