<svg width="18" height="18" viewBox="0 0 18 18" fill="none" xmlns="http://www.w3.org/2000/svg">
<path d="M13 7.67483H14.6C16.2 7.67483 17 6.87484 17 5.27485V3.67487C17 2.07489 16.2 1.2749 14.6 1.2749H13C11.4 1.2749 10.6 2.07489 10.6 3.67487V5.27485C10.6 6.87484 11.4 7.67483 13 7.67483Z" stroke="white" stroke-width="1.15556" stroke-miterlimit="10" stroke-linecap="round" stroke-linejoin="round"/>
<path d="M3.40001 17.2749H5.00002C6.60003 17.2749 7.40004 16.4749 7.40004 14.8749V13.275C7.40004 11.675 6.60003 10.875 5.00002 10.875H3.40001C1.8 10.875 1 11.675 1 13.275V14.8749C1 16.4749 1.8 17.2749 3.40001 17.2749Z" stroke="white" stroke-width="1.15556" stroke-miterlimit="10" stroke-linecap="round" stroke-linejoin="round"/>
<path d="M4.20002 7.67483C5.96734 7.67483 7.40004 6.24215 7.40004 4.47486C7.40004 2.70757 5.96734 1.2749 4.20002 1.2749C2.4327 1.2749 1 2.70757 1 4.47486C1 6.24215 2.4327 7.67483 4.20002 7.67483Z" stroke="white" stroke-width="1.15556" stroke-miterlimit="10" stroke-linecap="round" stroke-linejoin="round"/>
<path d="M13.8 17.2749C15.5673 17.2749 17 15.8422 17 14.0749C17 12.3076 15.5673 10.875 13.8 10.875C12.0327 10.875 10.6 12.3076 10.6 14.0749C10.6 15.8422 12.0327 17.2749 13.8 17.2749Z" stroke="white" stroke-width="1.15556" stroke-miterlimit="10" stroke-linecap="round" stroke-linejoin="round"/>
</svg>
