<svg width="115" height="47" viewBox="0 0 115 47" fill="none" xmlns="http://www.w3.org/2000/svg">
<path d="M17.1171 28.0143C15.9428 28.0143 14.7651 28.067 13.5943 27.9985C12.5397 27.937 12.1389 27.3766 12.1266 26.2277C12.052 19.0041 11.3941 11.8394 9.61318 4.81082C9.28901 3.53059 8.92038 2.262 8.57979 0.985881C8.56132 0.917457 8.61809 0.825083 8.59278 0.917457L15.2856 0.123047C14.7467 4.77592 14.1961 9.52117 13.6497 14.2657C13.3474 16.8932 13.0494 19.5196 12.7558 22.1448C12.684 22.7812 12.5923 23.4182 12.5759 24.0559C12.5246 26.032 13.6613 27.2828 15.6187 27.4491C16.1118 27.4915 16.6042 27.5374 17.0966 27.5818L17.1171 28.0143Z" fill="#3CA32B"/>
<path d="M10.7346 25.6635C7.89493 19.0209 4.5711 12.8681 0.305511 7.2703L4.31189 5.7417C6.45392 8.66685 11.0608 22.7226 10.7346 25.6635Z" fill="#3CA32B"/>
<path d="M4.80331 3.95428L8.44722 3.25635C10.2042 9.43988 10.9934 15.7589 11.3197 21.9363L4.80331 3.95428Z" fill="#3CA32B"/>
<path d="M17.4367 29.8652C15.2865 31.4917 13.128 31.6997 12.7772 30.4434L17.4367 29.8652Z" fill="#3CA32B"/>
<path d="M16.1167 28.9992C14.9123 29.4782 13.6963 29.8764 12.5959 28.783L16.1167 28.9992Z" fill="#3CA32B"/>
<path d="M30.6983 1.28178C29.7777 1.13193 28.8517 1.01629 27.9216 0.925974C24.6176 0.603694 21.315 0.260203 18.0048 0.00840045C16.7225 -0.0894467 15.9243 0.674172 15.7752 1.94961C14.9226 9.26967 14.0805 16.5911 13.2489 23.9139C13.0874 25.3337 13.9102 26.4456 15.3478 26.6235C19.2755 27.1107 23.2128 27.5336 26.6707 27.9277C29.3017 28.0331 29.8885 27.5561 30.2107 25.448C30.2558 25.1531 30.2791 24.8541 30.3098 24.5585C31.0489 17.6462 31.7901 10.7335 32.5332 3.82033C32.6885 2.36973 32.1222 1.51443 30.6983 1.28178ZM28.031 25.6758C23.9959 25.2338 20.1503 24.8027 16.3005 24.3977C15.5174 24.3149 15.4483 23.8578 15.5229 23.2344C15.956 19.5943 16.3839 15.9536 16.8066 12.3125C17.1369 9.47836 17.4556 6.64285 17.7921 3.80939C17.8455 3.35573 17.9645 2.9096 18.0698 2.37794L30.4774 3.81828C29.654 11.1664 28.8463 18.3818 28.0297 25.6758H28.031Z" fill="#3CA32B"/>
<path d="M19.7561 13.7698L19.8245 13.1279C19.8892 12.4916 20.0896 12.0206 20.4256 11.715C20.7617 11.4093 21.2099 11.2853 21.7702 11.3427C22.3283 11.4002 22.7352 11.6137 22.991 11.9832C23.2468 12.3527 23.3416 12.8572 23.2755 13.4968L22.9254 16.918L21.8215 16.8051L22.1758 13.3435C22.2118 12.989 22.1867 12.7245 22.1005 12.5498C22.0586 12.4642 21.9943 12.3916 21.9145 12.3397C21.8347 12.2878 21.7423 12.2585 21.6471 12.2548C21.5555 12.2405 21.4617 12.2516 21.3759 12.2869C21.2902 12.3223 21.2158 12.3805 21.1608 12.4553C21.0432 12.61 20.9662 12.8659 20.9297 13.2231L20.5761 16.6778L19.4723 16.5642L19.6733 14.6004L19.2185 14.5539C19.157 14.7261 19.0356 14.8703 18.8766 14.9604C18.7031 15.0548 18.5039 15.0912 18.3082 15.0644L18.1297 15.0459L18.5312 13.6439L19.7561 13.7698Z" fill="#3CA32B"/>
<path d="M25.9124 17.2273C25.4319 17.1781 25.0628 17.0789 24.8052 16.9297C24.5555 16.7891 24.3665 16.5613 24.2744 16.2899C24.1778 16.0126 24.1534 15.6408 24.2013 15.1746L24.2457 14.7408C24.3223 13.995 24.4591 13.4099 24.6561 12.9857C24.853 12.5615 25.1266 12.2666 25.4768 12.101C25.8247 11.9354 26.2997 11.8836 26.9021 11.9457L27.9006 12.0483L28.0127 13.5064L27.8342 13.4879C27.6384 13.4737 27.4522 13.3972 27.3028 13.2697C27.164 13.1503 27.073 12.9849 27.0464 12.8037C26.6483 12.7626 26.3415 12.795 26.1258 12.9009C25.9101 13.0067 25.7428 13.2024 25.6238 13.4879C25.5048 13.774 25.4136 14.2267 25.3502 14.8462L25.3017 15.3532C25.2652 15.7031 25.3017 15.9565 25.4111 16.1134C25.5205 16.2703 25.7221 16.3641 26.0157 16.3946L26.7331 16.4678C26.8018 16.3298 26.9182 16.2214 27.0607 16.1627C27.2193 16.085 27.3966 16.0534 27.5723 16.0717L27.7508 16.0901L27.4588 16.9619L27.5675 17.8787L27.389 17.861C27.2118 17.8438 27.0432 17.7767 26.9027 17.6673C26.7768 17.5803 26.6862 17.4508 26.6476 17.3026L25.9124 17.2273Z" fill="#3CA32B"/>
<path d="M38.4716 9.99097H41.8085L48.4568 27.286H45.0372L43.6851 23.7231H36.6312L35.2251 27.286H31.8055L38.4716 9.99097ZM40.1609 14.5754L37.8411 20.5133H42.4643L40.1609 14.5754Z" fill="#3CA32B"/>
<path d="M49.8319 14.4883H52.5819V16.099C52.8792 15.4641 53.2747 14.9821 53.7685 14.6532C54.2468 14.3287 54.8121 14.1565 55.3901 14.1592C55.8438 14.1692 56.2895 14.2817 56.6936 14.4883L55.6944 17.2513C55.3183 17.0634 55.0089 16.9694 54.7663 16.9694C54.2726 16.9694 53.8554 17.275 53.5148 17.8863C53.1742 18.4976 53.0037 19.6968 53.0032 21.4841L53.0155 22.1067V27.2803H49.8319V14.4883Z" fill="#3CA32B"/>
<path d="M59.5329 9.22208C59.8032 9.21867 60.0714 9.27126 60.3204 9.37653C60.5695 9.48181 60.7941 9.63749 60.9801 9.8338C61.1757 10.027 61.3301 10.2579 61.4339 10.5125C61.5377 10.7672 61.5888 11.0402 61.584 11.3152C61.5885 11.5869 61.5378 11.8567 61.4351 12.1083C61.3324 12.3599 61.1796 12.588 60.9862 12.7788C60.8025 12.9728 60.5807 13.1267 60.3347 13.2309C60.0887 13.3351 59.8239 13.3873 59.5568 13.3843C59.2842 13.3885 59.0137 13.3359 58.7624 13.2299C58.5112 13.1238 58.2847 12.9667 58.0973 12.7685C57.9012 12.5721 57.7467 12.338 57.643 12.0804C57.5394 11.8228 57.4887 11.547 57.4941 11.2693C57.494 10.7277 57.7085 10.2082 58.0907 9.82465C58.4729 9.44111 58.9916 9.2249 59.5329 9.22345V9.22208ZM57.9291 14.4908H61.1394V27.2862H57.9312L57.9291 14.4908Z" fill="#3CA32B"/>
<path d="M62.5233 14.4892H63.6634C63.6707 12.8124 63.6981 11.8209 63.7455 11.5148C63.8316 10.8096 64.128 10.251 64.6346 9.83909C65.1411 9.42718 65.856 9.2219 66.7793 9.22327C67.4455 9.22327 68.1978 9.37632 69.0363 9.6824V12.1272C68.5739 11.9945 68.1939 11.9279 67.8962 11.9274C67.5207 11.9274 67.2458 12.0061 67.0755 12.1628C66.9496 12.2805 66.8869 12.5234 66.8874 12.8915L66.8758 14.4906H68.9084V17.2064H66.8758V27.2812H63.6675V17.205H62.5274L62.5233 14.4892Z" fill="#3CA32B"/>
<path d="M73.9699 14.4884V15.8993C74.5075 15.3482 75.1457 14.9053 75.8499 14.5945C76.5333 14.3024 77.2694 14.1542 78.0125 14.1593C79.6803 14.1593 81.0981 14.7902 82.2658 16.0519C83.4334 17.3137 84.0173 18.9331 84.0173 20.9101C84.0173 22.8146 83.4138 24.4075 82.207 25.6888C81.0001 26.9702 79.5704 27.6111 77.9181 27.6116C77.2133 27.6177 76.5143 27.4837 75.8616 27.2175C75.2269 26.9547 74.5963 26.5257 73.9699 25.9304V31.9593H70.7828V14.4884H73.9699ZM77.3423 17.1221C76.3314 17.1221 75.4932 17.467 74.8275 18.1567C74.1618 18.8464 73.829 19.7478 73.829 20.8608C73.829 21.9976 74.1618 22.9165 74.8275 23.6176C75.4932 24.3188 76.3314 24.6702 77.3423 24.6721C77.807 24.6805 78.2682 24.5894 78.6949 24.4048C79.1215 24.2202 79.5038 23.9465 79.816 23.6019C80.4853 22.8889 80.8202 21.9798 80.8207 20.8745C80.8207 19.7797 80.4917 18.8804 79.8338 18.1765C79.1758 17.4727 78.3453 17.1212 77.3423 17.1221Z" fill="#3CA32B"/>
<path d="M96.1092 14.4887H99.3174V27.2841H96.1092V25.9286C95.4836 26.5216 94.8558 26.9506 94.2256 27.2157C93.5749 27.4827 92.8772 27.6167 92.1739 27.6098C90.5229 27.6098 89.0949 26.9689 87.8898 25.6871C86.6848 24.4052 86.0834 22.8125 86.0857 20.909C86.0857 18.9333 86.6686 17.3139 87.8344 16.0508C89.0003 14.7877 90.4167 14.1568 92.0836 14.1582C92.8256 14.1532 93.5606 14.3014 94.2427 14.5934C94.9438 14.9027 95.5778 15.3459 96.1092 15.8982V14.4887ZM92.7368 17.1224C91.7451 17.1224 90.9214 17.4731 90.2658 18.1747C89.6101 18.8763 89.2821 19.7756 89.2816 20.8727C89.2816 21.9775 89.6154 22.8867 90.2829 23.6001C90.5933 23.9448 90.9741 24.2188 91.3994 24.4038C91.8247 24.5887 92.2847 24.6803 92.7484 24.6723C93.756 24.6723 94.5915 24.3215 95.2549 23.62C95.9183 22.9184 96.2503 21.9994 96.2507 20.8631C96.2507 19.7505 95.9188 18.8492 95.2549 18.159C94.5911 17.4688 93.7517 17.1233 92.7368 17.1224Z" fill="#3CA32B"/>
<path d="M101.141 14.4888H104.42L107.741 22.515L111.407 14.4888H114.694L106.688 31.9596H103.374L106.004 26.3262L101.141 14.4888Z" fill="#3CA32B"/>
<path d="M62.3237 42.1286C62.4335 42.0187 62.4335 41.8406 62.3237 41.7308L60.5338 39.9409C60.424 39.8311 60.2459 39.8311 60.1361 39.9409C60.0263 40.0508 60.0263 40.2289 60.1361 40.3387L61.7271 41.9297L60.1361 43.5207C60.0263 43.6305 60.0263 43.8086 60.1361 43.9184C60.2459 44.0283 60.424 44.0283 60.5338 43.9184L62.3237 42.1286ZM13.8055 41.9297V42.2109H62.1248V41.9297V41.6484H13.8055V41.9297Z" fill="#3CA32B"/>
<path d="M112.404 43.5447L112.997 40.0126H114.694L113.673 46.1539H112.041L112.223 45.0388H112.157C111.97 45.394 111.695 45.6833 111.333 45.9067C110.97 46.1265 110.56 46.2345 110.102 46.2308C109.688 46.2308 109.34 46.1393 109.059 45.9562C108.777 45.7694 108.577 45.5039 108.46 45.1597C108.343 44.8154 108.324 44.4034 108.405 43.9237L109.059 40.0126H110.761L110.163 43.6271C110.104 43.986 110.153 44.2716 110.311 44.484C110.468 44.6927 110.708 44.7953 111.031 44.7916C111.232 44.7916 111.43 44.7458 111.624 44.6543C111.818 44.5591 111.985 44.4181 112.124 44.2313C112.267 44.0446 112.36 43.8157 112.404 43.5447Z" fill="#3CA32B"/>
<path d="M103.602 42.6053L103.02 46.1539H101.317L102.339 40.0126H104.014L103.838 41.1057H103.893C104.084 40.7432 104.349 40.4575 104.69 40.2488C105.034 40.04 105.435 39.9357 105.893 39.9357C106.318 39.9357 106.673 40.0291 106.959 40.2158C107.244 40.4026 107.446 40.6681 107.563 41.0123C107.684 41.3566 107.704 41.7686 107.623 42.2483L106.97 46.1539H105.267L105.871 42.5504C105.933 42.1769 105.886 41.8839 105.728 41.6715C105.574 41.4591 105.325 41.3511 104.981 41.3474C104.75 41.3474 104.538 41.3987 104.344 41.5012C104.153 41.6001 103.992 41.7429 103.86 41.9297C103.732 42.1165 103.646 42.3417 103.602 42.6053Z" fill="#3CA32B"/>
<path d="M97.7834 46.2748C97.1498 46.2748 96.6188 46.1448 96.1904 45.8848C95.7619 45.6248 95.4561 45.2567 95.273 44.7806C95.0936 44.3046 95.0588 43.7406 95.1686 43.0887C95.2712 42.4625 95.4744 41.9132 95.7784 41.4408C96.086 40.9647 96.4742 40.5948 96.9429 40.3312C97.4153 40.0675 97.95 39.9357 98.5469 39.9357C98.9607 39.9357 99.3361 40.0016 99.673 40.1334C100.014 40.2616 100.299 40.4575 100.53 40.7212C100.764 40.9812 100.927 41.3071 101.019 41.699C101.114 42.0872 101.118 42.5431 101.03 43.0668L100.953 43.5172H95.7729L95.9432 42.468H100.305L99.4643 42.7317C99.5192 42.4167 99.5247 42.1458 99.4808 41.9187C99.4405 41.6917 99.3453 41.5159 99.1951 41.3914C99.045 41.2668 98.8326 41.2046 98.5579 41.2046C98.2759 41.2046 98.0177 41.2705 97.7834 41.4023C97.5527 41.5305 97.3604 41.7063 97.2066 41.9297C97.0528 42.1531 96.9521 42.4076 96.9045 42.6932L96.7836 43.4348C96.7323 43.7644 96.736 44.0464 96.7946 44.2808C96.8532 44.5151 96.9704 44.6946 97.1462 44.8191C97.3256 44.9436 97.5673 45.0059 97.8713 45.0059C98.0727 45.0059 98.2576 44.9784 98.4261 44.9235C98.5982 44.8649 98.7483 44.7825 98.8765 44.6763C99.0084 44.5664 99.1164 44.4364 99.2006 44.2863L100.755 44.4126C100.616 44.7898 100.409 45.1176 100.134 45.3959C99.8598 45.6742 99.5247 45.8903 99.1292 46.0441C98.7374 46.1979 98.2887 46.2748 97.7834 46.2748Z" fill="#3CA32B"/>
<path d="M84.9223 46.1539L85.944 40.0126H87.559L87.3832 41.1057H87.4547C87.6451 40.7432 87.9069 40.4575 88.2402 40.2488C88.5734 40.04 88.9488 39.9357 89.3663 39.9357C89.7801 39.9357 90.1188 40.0419 90.3825 40.2543C90.6462 40.463 90.7963 40.7468 90.8329 41.1057H90.8934C91.0765 40.7505 91.3493 40.4667 91.7119 40.2543C92.0781 40.0419 92.4864 39.9357 92.9368 39.9357C93.5045 39.9357 93.9384 40.1188 94.2387 40.485C94.539 40.8475 94.6342 41.3602 94.5244 42.0231L93.8377 46.1539H92.1348L92.772 42.3636C92.827 42.0194 92.7775 41.7631 92.6237 41.5946C92.4699 41.4261 92.2575 41.3419 91.9865 41.3419C91.6789 41.3419 91.4225 41.439 91.2175 41.6331C91.0124 41.8271 90.8842 42.0853 90.8329 42.4076L90.2012 46.1539H88.5533L89.2015 42.3197C89.2454 42.0231 89.196 41.7869 89.0532 41.6111C88.9103 41.4316 88.6979 41.3419 88.416 41.3419C88.2292 41.3383 88.0516 41.384 87.8831 41.4792C87.7183 41.5745 87.5792 41.7063 87.4656 41.8748C87.3521 42.0432 87.277 42.2428 87.2404 42.4735L86.6252 46.1539H84.9223Z" fill="#3CA32B"/>
<path d="M85.1899 40.0126L85.058 40.8146H81.7512L81.883 40.0126H85.1899ZM81.85 46.1539L83.0146 39.1666C83.0695 38.8151 83.1977 38.5239 83.3991 38.2932C83.6042 38.0588 83.8477 37.8831 84.1297 37.7659C84.4153 37.645 84.7028 37.5846 84.9921 37.5846C85.2265 37.5883 85.4133 37.6084 85.5524 37.645C85.6953 37.6816 85.7978 37.7164 85.86 37.7494L85.4645 38.5624C85.4169 38.5441 85.3528 38.5239 85.2723 38.502C85.1917 38.48 85.0837 38.4672 84.9482 38.4635C84.6369 38.4672 84.3989 38.5477 84.2341 38.7052C84.0729 38.8627 83.9631 39.0934 83.9045 39.3973L82.7949 46.1539H81.85Z" fill="#3CA32B"/>
<path d="M79.2227 46.1539L80.2444 40.0126H81.1893L80.1675 46.1539H79.2227ZM81.0025 38.9799C80.8231 38.9835 80.6674 38.9231 80.5356 38.7986C80.4037 38.6704 80.336 38.5184 80.3323 38.3427C80.336 38.1669 80.4037 38.0167 80.5356 37.8922C80.6674 37.7677 80.8231 37.7054 81.0025 37.7054C81.1893 37.7054 81.3486 37.7677 81.4804 37.8922C81.6122 38.0167 81.68 38.1669 81.6837 38.3427C81.68 38.5184 81.6122 38.6704 81.4804 38.7986C81.3486 38.9231 81.1893 38.9835 81.0025 38.9799Z" fill="#3CA32B"/>
<path d="M75.4748 46.1539L76.4965 40.0125H77.4084L77.2436 40.9464H77.3095C77.4706 40.6424 77.716 40.3952 78.0456 40.2048C78.3752 40.0143 78.7231 39.921 79.0893 39.9246C79.1625 39.921 79.2486 39.921 79.3475 39.9246C79.4463 39.9246 79.5251 39.9283 79.5837 39.9356L79.4189 40.8914C79.3896 40.8841 79.3182 40.8731 79.2046 40.8585C79.0948 40.8401 78.9758 40.8328 78.8476 40.8365C78.551 40.8328 78.2745 40.8932 78.0181 41.0178C77.7654 41.1423 77.553 41.3144 77.3809 41.5341C77.2125 41.7502 77.1044 41.9974 77.0568 42.2757L76.4196 46.1539H75.4748Z" fill="#3CA32B"/>
<path d="M68.7825 46.1539H67.7498L72.1114 37.9691H73.1331L74.7811 46.1539H73.7374L72.441 39.2655H72.3751L68.7825 46.1539ZM69.6944 42.9569H73.8802L73.7374 43.8358H69.5516L69.6944 42.9569Z" fill="#3CA32B"/>
</svg>
