<svg width="18" height="18" viewBox="0 0 18 18" fill="none" xmlns="http://www.w3.org/2000/svg">
<path d="M1.57027 8.6509V12.2429C1.57027 15.8349 3.06201 17.2749 6.7831 17.2749H11.2501C14.9711 17.2749 16.4629 15.8349 16.4629 12.2429V8.6509M9.02072 9.2749C10.5373 9.2749 11.6561 8.0829 11.507 6.6189L10.96 1.2749H7.08973L6.53447 6.6189C6.3853 8.0829 7.50411 9.2749 9.02072 9.2749ZM14.2501 9.2749C15.9242 9.2749 17.1507 7.9629 16.985 6.3549L16.7529 4.1549C16.4546 2.0749 15.6258 1.2749 13.4545 1.2749H10.9268L11.507 6.8829C11.6479 8.2029 12.8827 9.2749 14.2501 9.2749ZM3.74988 9.2749C5.11731 9.2749 6.35215 8.2029 6.48475 6.8829L7.06487 1.2749H4.53719C2.36587 1.2749 1.53712 2.0749 1.23877 4.1549L1.015 6.3549C0.849255 7.9629 2.0758 9.2749 3.74988 9.2749ZM9.02072 13.2749C7.63671 13.2749 6.94885 13.9389 6.94885 15.2749V17.2749H11.0926V15.2749C11.0926 13.9389 10.4047 13.2749 9.02072 13.2749Z" stroke="#6B7280" stroke-width="1.15556" stroke-linecap="round" stroke-linejoin="round"/>
</svg>
