<svg width="18" height="18" viewBox="0 0 18 18" fill="none" xmlns="http://www.w3.org/2000/svg">
<path d="M4.32623 14.1949C4.32623 14.514 4.58491 14.7727 4.904 14.7727C5.2231 14.7727 5.48178 14.514 5.48178 14.1949H4.904H4.32623ZM5.48178 12.5389C5.48178 12.2198 5.2231 11.9611 4.904 11.9611C4.58491 11.9611 4.32623 12.2198 4.32623 12.5389H4.904H5.48178ZM8.42222 14.1949C8.42222 14.514 8.6809 14.7727 9 14.7727C9.3191 14.7727 9.57778 14.514 9.57778 14.1949H9H8.42222ZM9.57778 10.8829C9.57778 10.5638 9.3191 10.3051 9 10.3051C8.6809 10.3051 8.42222 10.5638 8.42222 10.8829H9H9.57778ZM12.5182 14.1949C12.5182 14.514 12.7769 14.7727 13.096 14.7727C13.4151 14.7727 13.6738 14.514 13.6738 14.1949H13.096H12.5182ZM13.6738 9.2189C13.6738 8.8998 13.4151 8.64112 13.096 8.64112C12.7769 8.64112 12.5182 8.8998 12.5182 9.2189H13.096H13.6738ZM13.0959 4.35459L13.6737 4.35449L13.6736 3.77681L13.0959 3.77681L13.0959 4.35459ZM12.7279 4.78659L13.1669 5.16224L13.1677 5.16126L12.7279 4.78659ZM4.76412 9.05798C4.4545 9.13518 4.26609 9.44876 4.34329 9.75838C4.42049 10.068 4.73407 10.2564 5.04369 10.1792L4.90391 9.61859L4.76412 9.05798ZM10.7523 3.77682C10.4332 3.77682 10.1745 4.0355 10.1745 4.3546C10.1745 4.6737 10.4332 4.93237 10.7523 4.93237L10.7523 4.3546L10.7523 3.77682ZM12.5185 6.6907C12.5186 7.0098 12.7773 7.26843 13.0964 7.26837C13.4155 7.26832 13.6742 7.00959 13.6741 6.69049L13.0963 6.6906L12.5185 6.6907ZM4.904 14.1949H5.48178V12.5389H4.904H4.32623V14.1949H4.904ZM9 14.1949H9.57778V10.8829H9H8.42222V14.1949H9ZM13.096 14.1949H13.6738V9.2189H13.096H12.5182V14.1949H13.096ZM13.0959 4.35459L12.6561 3.97992L12.2881 4.41192L12.7279 4.78659L13.1677 5.16126L13.5357 4.72926L13.0959 4.35459ZM12.7279 4.78659L12.2889 4.41094C10.3273 6.70335 7.69601 8.32693 4.76412 9.05798L4.90391 9.61859L5.04369 10.1792C8.2078 9.39025 11.0485 7.63783 13.1669 5.16224L12.7279 4.78659ZM10.7523 4.3546L10.7523 4.93237L13.0959 4.93237L13.0959 4.35459L13.0959 3.77681L10.7523 3.77682L10.7523 4.3546ZM13.0959 4.35459L12.5181 4.35469L12.5185 6.6907L13.0963 6.6906L13.6741 6.69049L13.6737 4.35449L13.0959 4.35459ZM6.6 17.2749V17.8527H11.4V17.2749V16.6971H6.6V17.2749ZM11.4 17.2749V17.8527C13.457 17.8527 15.0472 17.4448 16.1086 16.3835C17.1699 15.3221 17.5778 13.7319 17.5778 11.6749H17H16.4222C16.4222 13.6179 16.0301 14.8277 15.2914 15.5664C14.5528 16.305 13.343 16.6971 11.4 16.6971V17.2749ZM17 11.6749H17.5778V6.8749H17H16.4222V11.6749H17ZM17 6.8749H17.5778C17.5778 4.81792 17.1699 3.22772 16.1086 2.16635C15.0472 1.10498 13.457 0.697125 11.4 0.697125V1.2749V1.85268C13.343 1.85268 14.5528 2.24482 15.2914 2.98345C16.0301 3.72208 16.4222 4.93189 16.4222 6.8749H17ZM11.4 1.2749V0.697125H6.6V1.2749V1.85268H11.4V1.2749ZM6.6 1.2749V0.697125C4.54301 0.697125 2.95282 1.10498 1.89145 2.16635C0.830081 3.22772 0.422222 4.81792 0.422222 6.8749H1H1.57778C1.57778 4.93189 1.96992 3.72208 2.70855 2.98345C3.44718 2.24482 4.65699 1.85268 6.6 1.85268V1.2749ZM1 6.8749H0.422222V11.6749H1H1.57778V6.8749H1ZM1 11.6749H0.422222C0.422222 13.7319 0.830081 15.3221 1.89145 16.3835C2.95282 17.4448 4.54301 17.8527 6.6 17.8527V17.2749V16.6971C4.65699 16.6971 3.44718 16.305 2.70855 15.5664C1.96992 14.8277 1.57778 13.6179 1.57778 11.6749H1Z" fill="#6B7280"/>
</svg>
