<svg width="18" height="18" viewBox="0 0 18 18" fill="none" xmlns="http://www.w3.org/2000/svg">
<path d="M13.9121 16.9709C13.2081 17.1789 12.3761 17.2749 11.4001 17.2749H6.60009C5.62409 17.2749 4.79209 17.1789 4.08809 16.9709M13.9121 16.9709C13.7361 14.8909 11.6001 13.2508 9.00009 13.2508C6.40009 13.2508 4.26409 14.8909 4.08809 16.9709M13.9121 16.9709C16.0881 16.3549 17 14.6991 17 11.6751V6.87499C17 2.87493 15.4 1.2749 11.4 1.2749H6.6C2.6 1.2749 1 2.87493 1 6.87499V11.6751C1 14.6991 1.91209 16.3549 4.08809 16.9709M11.864 8.13915C11.864 9.72317 10.584 11.0112 9.00002 11.0112C7.41602 11.0112 6.13602 9.72317 6.13602 8.13915C6.13602 6.55512 7.41602 5.27509 9.00002 5.27509C10.584 5.27509 11.864 6.55512 11.864 8.13915Z" stroke="#6B7280" stroke-width="1.3" stroke-linecap="round" stroke-linejoin="round"/>
</svg>
