<svg width="60" height="60" viewBox="0 0 60 60" fill="none" xmlns="http://www.w3.org/2000/svg">
<path opacity="0.3" d="M36.887 0C49.5896 0 59.887 10.2975 59.887 23V37C59.887 49.7025 49.5896 60 36.887 60H23.4026C10.7001 60 0.402649 49.7025 0.402649 37V23C0.402649 10.2975 10.7001 0 23.4026 0H36.887Z" fill="#FF9066"/>
<path opacity="0.78" fill-rule="evenodd" clip-rule="evenodd" d="M28.7879 23.8093C28.8078 23.5486 29.0251 23.3473 29.2865 23.3473H29.6922C29.9492 23.3473 30.1644 23.5422 30.1897 23.798L30.806 30.014L35.1823 32.5363C35.3371 32.6256 35.4326 32.7908 35.4326 32.9695V33.3578C35.4326 33.688 35.1183 33.9275 34.8 33.8399L28.5595 32.1232C28.3288 32.0598 28.1754 31.8417 28.1936 31.6031L28.7879 23.8093Z" fill="#FF9066"/>
<path opacity="0.901274" d="M22.066 15.1953C22.161 14.7937 22.6694 14.6723 22.9323 14.9883L24.7125 17.1289C26.3812 16.4122 28.217 16.0137 30.1451 16.0137L30.5035 16.0186C38.0034 16.2104 44.0249 22.4027 44.025 30.0137C44.025 37.7456 37.8107 44.0136 30.1451 44.0137C22.4796 44.0137 16.2653 37.7457 16.2653 30.0137C16.2653 28.7006 16.4448 27.4297 16.7799 26.2246L19.3248 26.9453C19.0499 27.9342 18.9088 28.9632 18.9088 30.0137C18.9088 36.2729 23.9397 41.3477 30.1451 41.3477C36.3506 41.3476 41.3815 36.2729 41.3815 30.0137C41.3814 23.9502 36.6599 18.9989 30.7233 18.6953L30.1451 18.6807C28.8877 18.6807 27.6633 18.8891 26.5084 19.2871L28.2916 21.4297C28.5549 21.7462 28.3465 22.2305 27.9371 22.2539L20.9606 22.6533C20.628 22.6723 20.3716 22.363 20.4489 22.0361L22.066 15.1953Z" fill="#FF9066"/>
</svg>
