<svg width="18" height="18" viewBox="0 0 18 18" fill="none" xmlns="http://www.w3.org/2000/svg">
<path d="M12.995 11.2256C14.0929 11.4096 15.303 11.2176 16.1525 10.6497C17.2825 9.89781 17.2825 8.66596 16.1525 7.91406C15.295 7.34613 14.0688 7.15415 12.9709 7.34612M5.00503 11.2256C3.9071 11.4096 2.69698 11.2176 1.84749 10.6497C0.717504 9.89781 0.717504 8.66596 1.84749 7.91406C2.70499 7.34613 3.93114 7.15415 5.02907 7.34612M13.8205 5.40239C13.7724 5.39439 13.7163 5.39439 13.6683 5.40239C12.5623 5.3624 11.6808 4.45851 11.6808 3.33865C11.6808 2.19479 12.6024 1.2749 13.7484 1.2749C14.8944 1.2749 15.816 2.20279 15.816 3.33865C15.808 4.45851 14.9265 5.3624 13.8205 5.40239ZM4.17957 5.40239C4.22765 5.39439 4.28375 5.39439 4.33183 5.40239C5.43777 5.3624 6.31932 4.45851 6.31932 3.33865C6.31932 2.19479 5.39771 1.2749 4.25169 1.2749C3.10568 1.2749 2.18406 2.20279 2.18406 3.33865C2.19208 4.45851 3.07362 5.3624 4.17957 5.40239ZM9.01395 11.3776C8.96586 11.3696 8.90977 11.3696 8.86168 11.3776C7.75574 11.3376 6.87419 10.4337 6.87419 9.31389C6.87419 8.17003 7.79581 7.25014 8.94182 7.25014C10.0878 7.25014 11.0095 8.17803 11.0095 9.31389C11.0014 10.4337 10.1199 11.3456 9.01395 11.3776ZM6.68187 13.8973C5.55188 14.6492 5.55188 15.8811 6.68187 16.633C7.96412 17.4889 10.0638 17.4889 11.3461 16.633C12.476 15.8811 12.476 14.6492 11.3461 13.8973C10.0718 13.0494 7.96412 13.0494 6.68187 13.8973Z" stroke="#6B7280" stroke-width="1.3" stroke-linecap="round" stroke-linejoin="round"/>
</svg>
